<?xml version="1.0" encoding="utf-8"?>
<!-- Generator: Adobe Illustrator 23.0.3, SVG Export Plug-In . SVG Version: 6.00 Build 0)  -->
<svg version="1.1" id="Layer_1" xmlns="http://www.w3.org/2000/svg" xmlns:xlink="http://www.w3.org/1999/xlink" x="0px" y="0px"
	 viewBox="0 0 1200 1200" enable-background="new 0 0 1200 1200" xml:space="preserve">
<style>

@keyframes colorChange {
  0% {
    fill: rgba(0, 0, 0, 0);


  }
  25% {
    fill: #1DD9E0;


  }
  50% {
    fill: rgba(0, 0, 0, 0);


  }
  75% {
    fill: #1DD9E0;


  }
  100% {
    fill: rgba(0, 0, 0, 0);

  }
}
@keyframes colorDeep {
  0% {
    transform: scale(1);
  }
  25% {
    transform: scale(1.005);
     stroke-width: 15;
     stroke:#1DD9E0;
  }
  50% {
    transform: scale(1);
    stroke-width: 0;
  }
  75% {
    transform: scale(1.005);
     stroke-width: 15;
     stroke:#1DD9E0;
  }
  100% {
  }
}


#path4 {
  animation: colorChange 4s infinite;
  animation-delay: 2s;
}

#path3 {
  animation: colorDeep 4s infinite;
  animation-delay: 2s;
}

</style>

    <g >
        <!-- Aquí van todos los paths de tu SVG -->
    </g>
<g class="pulse">
	<path id="path1" fill="#285CFA" d="M791.345,911.088c-14.521,1.602-28.379,5.464-41.583,9.31c-31.394,9.125-61.176,3.462-81.709-15.563
		c-20.941-19.405-35.331-54.395-22.318-83.737c3.497-7.886,8.838-14.172,15.285-19.171c-46.376,3.455-87.396,4.637-123.606,3.934
		c5.158,15.836,18.149,49.097,42.532,73.674c40.51,40.821,93.698,103.883,117.033,172.478c12.784,37.577,40.503,46.619,55.89,48.667
		c23.029,3.091,47.01-5.446,56.972-20.244c18.682-27.747-6.885-130.986-18.313-168.423
		C791.435,911.706,791.396,911.398,791.345,911.088z M741.765,943.269c3.803,0.014,7.228,2.924,7.378,6.85
		c0.614,16.244,5.707,44.542,16.761,51.318c2.116,1.298,5.696,2.679,12.312-0.385c3.562-1.659,7.8-0.102,9.45,3.471
		c1.65,3.569,0.097,7.8-3.471,9.45c-4.931,2.28-9.322,3.147-13.143,3.147c-5.332,0-9.556-1.682-12.597-3.55
		c-21.106-12.949-23.351-57.848-23.539-62.928C734.772,946.717,737.837,943.418,741.765,943.269z M795.076,1055.184
		c1.789,3.499,0.399,7.786-3.103,9.575c-7.438,3.796-14.877,5.696-22.255,5.696c-6.298,0-12.553-1.381-18.726-4.153
		c-46.466-20.865-71.784-116.28-72.839-120.331c-0.99-3.805,1.291-7.689,5.093-8.68c3.821-1.01,7.693,1.288,8.685,5.093
		c0.241,0.927,24.635,92.862,64.9,110.932c9.394,4.217,18.774,3.81,28.667-1.237
		C788.998,1050.299,793.289,1051.685,795.076,1055.184z"/>
	<path id="path2" fill="#2AD4FA" d="M900.101,837.468c-52.539,0-107.57-10.961-163.71-32.618c-5.231-2.018-10.684-3.525-16.249-4.549
		c-23.63-0.957-52.026,5.449-61.393,26.572c-10.305,23.233,1.75,51.55,18.981,67.516c16.777,15.549,41.581,20.04,68.051,12.337
		c17.878-5.205,38.937-10.571,60.677-10.641c23.312,0.116,44.394,7.726,63.706,15.933c32.896,13.978,80.796,18.524,107.516-14.696
		c13.472-16.747,20.655-39.72,22.349-71.645c-31.979,8.166-64.635,11.176-92.671,11.721
		C904.947,837.444,902.525,837.468,900.101,837.468z M930.177,886.844c14.228-4.546,25.228-15.271,32.694-31.876
		c1.613-3.583,5.83-5.181,9.413-3.573c3.585,1.613,5.186,5.826,3.573,9.413c-9.206,20.475-23.143,33.809-41.419,39.621
		c-7.304,2.322-14.77,3.263-22.053,3.263c-29.587,0-56.245-15.456-57.63-16.276c-3.385-1.993-4.512-6.349-2.521-9.737
		c1.988-3.379,6.356-4.514,9.739-2.53C862.344,875.364,899.309,896.711,930.177,886.844z"/>
	<path id="path3" fill="#369DFA" d="M1058.312,618.463c-3.297,2.137-7.703,1.219-9.851-2.076c-2.148-3.295-1.219-7.703,2.074-9.853
		c44.452-28.989,67.72-62.951,69.154-100.945c3.05-80.78-91.993-162.51-132.997-193.895c-13.25-10.14-24.299-22.074-32.836-35.463
		C770.953-10.701,489.248,129.461,434.635,160.48c-7.061,4.009-14.661,6.753-22.593,8.157
		c-43.296,7.675-262.618,52.291-328.697,177.308c-26.5,50.136-25.349,107.975,3.425,171.918c2.938,6.521,4.486,13.445,4.6,20.573
		c0.16,10.265,5.378,100.819,137.553,118.931c15.365,2.109,29.447,8.613,40.899,18.487c9.137-55.902,33.285-97.093,71.989-122.495
		c77.744-51.026,188.062-23.006,220.026-13.199c4.801,1.464,10.013-0.153,12.953-4.055c73.337-97.172,195.348-47.119,196.571-46.6
		c3.62,1.529,5.313,5.7,3.789,9.32c-1.527,3.62-5.703,5.302-9.322,3.8c-4.584-1.933-113.085-46.174-179.671,42.054
		c-6.532,8.667-17.984,12.314-28.498,9.088c-21.673-6.646-133.611-37.35-208.037,11.498
		c-37.714,24.751-60.341,66.525-67.352,124.121c3.377,4.604,6.344,9.591,8.779,14.957c19.185,42.29,96.952,108.995,402.077,80.622
		c3.33-0.31,6.671-0.468,10.008-0.468c13.171,0,26.271,2.401,38.381,7.072c57.002,21.991,112.684,32.678,165.568,31.594
		c28.535-0.554,62.323-3.756,94.567-12.572c4.362-0.775,0.575,0.31,4.176-0.685c2.078-0.638-0.374,0.714,4.421-1.666
		c30.71-9.584,60.254-25.045,81.982-48.589c46.88-50.79,56.907-133.02,25.495-199.484
		C1105.14,581.373,1085.295,600.866,1058.312,618.463z M262.412,319.258c-3.314,11.897-12.847,20.976-24.883,23.692
		c-32.741,7.392-53.793,20.485-62.573,38.916c-8.785,18.445-5.717,42.99,9.123,72.947c1.745,3.522,0.304,7.795-3.221,9.538
		c-1.015,0.505-2.092,0.742-3.154,0.742c-2.621,0-5.142-1.451-6.384-3.958c-16.874-34.073-19.975-62.802-9.218-85.391
		c10.752-22.575,35.074-38.281,72.294-46.679c6.915-1.562,12.395-6.78,14.3-13.625c30.813-110.714,169.396-97.181,170.801-97.01
		c3.907,0.417,6.732,3.925,6.317,7.832c-0.417,3.907-3.958,6.706-7.83,6.321C412.765,232.06,289.978,220.214,262.412,319.258z
		 M575.699,462.145c-0.07,0-0.139,0-0.211-0.005c-67.679-1.952-101.015-37.683-115.593-60.826
		c-19.9-4.073-31.425-18.732-41.642-31.763c-6.187-7.888-12.029-15.34-18.812-19.127c-13.98-7.8-36.316,1.469-43.741,5.7
		c-3.423,1.942-7.763,0.755-9.709-2.656c-1.947-3.416-0.755-7.763,2.66-9.709c1.374-0.783,33.948-19.053,57.728-5.765
		c9.281,5.177,16.295,14.121,23.078,22.769c6.389,8.15,12.572,15.979,20.439,21.176c-10.328-25.125-10.521-48.895-4.392-60.871
		c4.519-8.82,11.443-16.684,21.171-24.039c31-23.441,22.417-69.689,22.327-70.153c-0.751-3.856,1.761-7.596,5.615-8.351
		c3.844-0.76,7.589,1.743,8.351,5.594c0.447,2.252,10.472,55.401-27.705,84.265c-7.978,6.034-13.568,12.305-17.085,19.173
		c-4.952,9.677-3.481,37.169,12.17,63.609c12.075,20.401,41.845,54.901,105.554,56.745c3.93,0.111,7.024,3.388,6.91,7.318
		C582.699,459.091,579.534,462.145,575.699,462.145z M683.727,246.765c-0.28,0.653-26.76,60.36-98.092,60.36
		c-3.382,0-6.897-0.181-10.483-0.461c-1.502,23.365,2.719,48.639,17.481,73.696c1.995,3.388,0.867,7.754-2.521,9.746
		c-1.133,0.672-2.378,0.987-3.606,0.987c-2.438,0-4.813-1.251-6.141-3.504c-17.753-30.135-21.796-60.403-18.927-87.842
		c-0.077-0.597-0.106-1.206-0.023-1.832c0.08-0.605,0.255-1.168,0.473-1.709c7.51-59.057,46.246-104.156,46.827-104.82
		c2.588-2.948,7.084-3.244,10.041-0.658c2.957,2.586,3.253,7.082,0.667,10.043c-0.519,0.593-34.252,39.924-42.681,91.766
		c68.786,5.123,93.647-50.794,93.897-51.381c1.55-3.61,5.742-5.274,9.348-3.74C683.6,238.965,685.275,243.15,683.727,246.765z
		 M833.904,606.59c-0.677,1.038-69.585,103.498-234.361,67.446c-1.458-0.111-3.091-0.593-5.334-1.251
		c-62.221-18.255-127.922,0.927-172.078,20.23c-0.927,0.408-1.896,0.598-2.846,0.598c-2.744,0-5.357-1.594-6.528-4.268
		c-1.573-3.601,0.07-7.8,3.673-9.371c44.502-19.453,110.065-38.61,173.959-22.855c-0.76-28.735,37.923-62.596,43.008-66.916
		c2.996-2.544,7.487-2.178,10.031,0.816c2.547,2.999,2.181,7.489-0.811,10.034c-11.994,10.205-43.015,41.86-37.302,59.607
		c152.745,32.175,214.112-57.964,216.665-61.85c2.157-3.281,6.563-4.199,9.851-2.053
		C835.118,598.906,836.048,603.299,833.904,606.59z M905.336,340.16c-3.779-0.607-7.777-0.806-11.86-0.584
		c-28.261,1.548-47.237,12.805-63.977,22.737c-16.643,9.876-32.358,19.219-53.033,16.763c-13.32-1.566-23.97-7.369-31.658-17.245
		c-17.182-22.07-12.849-56.754-12.657-58.219c0.517-3.898,4.104-6.651,7.988-6.132c3.895,0.514,6.637,4.083,6.129,7.976
		c-0.042,0.334-3.719,30.342,9.802,47.666c5.334,6.831,12.55,10.696,22.06,11.818c15.876,1.845,28.34-5.524,44.104-14.872
		c18.149-10.766,38.717-22.973,70.468-24.711c5.107-0.269,10.113-0.028,14.891,0.742c20.573,3.3,36.956,19.141,48.688,47.077
		c3.462,8.245,5.633,17.245,6.458,26.75c1.455,16.786,4.667,26.435,17.454,29.341c3.835,0.871,6.236,4.686,5.364,8.523
		c-0.751,3.3-3.687,5.538-6.936,5.538c-0.524,0-1.054-0.056-1.585-0.176c-25.342-5.761-27.462-30.236-28.484-41.993
		c-0.695-8.032-2.512-15.591-5.399-22.473C933.454,355.593,920.73,342.626,905.336,340.16z M1054.257,722.972
		c-0.19,0.014-0.38,0.023-0.565,0.023c-3.673,0-6.783-2.818-7.089-6.539c-0.166-1.949-4.416-44.767-51.472-61.521
		c4.091,19.984,4.477,42.943-3.197,67.421c-0.952,3.045-3.761,4.991-6.79,4.991c-0.707,0-1.423-0.102-2.132-0.324
		c-3.752-1.177-5.84-5.172-4.662-8.922c21.4-68.276-28.498-125.642-29.005-126.212c-2.607-2.943-2.336-7.443,0.605-10.048
		c2.945-2.614,7.443-2.331,10.05,0.603c1.339,1.513,20.242,23.276,30.876,56.296c64.459,17.174,69.872,75.973,69.92,76.581
		C1061.105,719.236,1058.176,722.666,1054.257,722.972z"/>
	<path id="path4" fill="rgba(0, 0, 0, 0)" d="M1125.643,544.32c5.01-12.226,7.774-24.971,8.275-38.193c3.179-84.283-85.454-165.077-138.572-205.74
		c-11.925-9.125-21.843-19.826-29.483-31.811C776.035-29.212,484.185,115.979,427.605,148.096
		c-5.645,3.207-11.718,5.399-18.047,6.525c-62.429,11.063-271.363,57.083-338.8,184.672C42.1,393.508,43.12,455.555,73.789,523.706
		c2.137,4.746,3.263,9.774,3.344,14.951c0.181,11.517,5.911,113.087,149.855,132.816c22.378,3.068,41.477,17.556,51.096,38.754
		c19.625,43.254,79.725,89.43,244.26,95.214c4.219,14.365,17.977,54.37,47.495,84.124c39.456,39.76,91.203,101.009,113.664,167.037
		c11.144,32.757,35.744,53.969,67.488,58.191c3.814,0.51,7.633,0.755,11.426,0.755c24.619,0,47.946-10.391,59.234-27.158
		c24.733-36.732-9.008-155.457-15.762-178.058c0.168,0.002,0.332-0.012,0.5-0.009c20.795,0.102,40.265,7.174,58.207,14.803
		c16.223,6.892,35.725,11.665,55.206,11.665c25.518-0.005,50.996-8.194,68.973-30.542c16.125-20.049,24.356-47.084,25.702-84.664
		c33.034-10.239,64.466-26.548,88.212-52.277C1155.737,711.835,1165.31,617.416,1125.643,544.32z M809.842,1080.437
		c-9.962,14.798-33.943,23.335-56.972,20.244c-15.387-2.048-43.106-11.09-55.89-48.667
		c-23.335-68.596-76.523-131.658-117.033-172.478c-24.383-24.577-37.374-57.838-42.532-73.674
		c36.21,0.703,77.23-0.479,123.606-3.934c-6.446,4.998-11.787,11.285-15.285,19.171c-13.014,29.341,1.376,64.332,22.318,83.737
		c20.533,19.025,50.315,24.688,81.709,15.563c13.204-3.845,27.062-7.707,41.583-9.31c0.051,0.309,0.09,0.618,0.184,0.926
		C802.957,949.452,828.523,1052.69,809.842,1080.437z M977.681,897.323c-26.72,33.22-74.62,28.674-107.516,14.696
		c-19.312-8.208-40.394-15.818-63.706-15.933c-21.741,0.07-42.8,5.436-60.677,10.641c-26.47,7.703-51.274,3.212-68.051-12.337
		c-17.231-15.966-29.286-44.283-18.981-67.516c9.367-21.123,37.763-27.529,61.393-26.572c5.565,1.024,11.018,2.53,16.249,4.549
		c56.14,21.657,111.171,32.618,163.71,32.618c2.424,0,4.845-0.023,7.258-0.07c28.037-0.545,60.692-3.555,92.671-11.721
		C998.336,857.602,991.153,880.576,977.681,897.323z M1092.228,759.649c-21.727,23.542-50.733,38.622-81.44,48.206
		c-2.662,1.478-5.79,2.442-9.386,2.718c-0.015,0.024-0.036,0.044-0.05,0.068c-32.244,8.816-65.733,11.965-94.269,12.519
		c-52.885,1.084-108.566-9.603-165.568-31.594c-12.11-4.672-25.21-7.072-38.381-7.072c-3.337,0-6.678,0.158-10.008,0.468
		C388,813.336,310.233,746.631,291.048,704.341c-2.435-5.366-5.402-10.352-8.779-14.957c7.011-57.596,29.638-99.37,67.352-124.121
		c74.426-48.848,186.364-18.144,208.037-11.498c10.513,3.226,21.965-0.422,28.498-9.088
		c66.586-88.227,175.088-43.986,179.671-42.054c3.62,1.502,7.795-0.181,9.322-3.8c1.525-3.62-0.169-7.791-3.789-9.32
		c-1.224-0.519-123.234-50.572-196.571,46.6c-2.941,3.902-8.152,5.52-12.953,4.055c-31.964-9.807-142.282-37.827-220.026,13.199
		c-38.703,25.402-62.852,66.594-71.989,122.495c-11.452-9.874-25.534-16.378-40.899-18.487
		C96.748,639.254,91.53,548.7,91.37,538.434c-0.114-7.128-1.661-14.052-4.6-20.573c-28.773-63.943-29.925-121.781-3.425-171.918
		c66.079-125.016,285.401-169.633,328.697-177.308c7.932-1.404,15.533-4.148,22.593-8.157
		c54.613-31.019,336.318-171.181,519.222,115.752c8.537,13.389,19.586,25.323,32.836,35.463
		c41.004,31.385,136.046,113.115,132.997,193.895c-1.434,37.994-24.702,71.956-69.154,100.945c-3.293,2.15-4.222,6.558-2.074,9.853
		c2.148,3.295,6.553,4.213,9.851,2.076c26.982-17.597,46.827-37.09,59.41-58.298C1149.135,626.629,1139.108,708.86,1092.228,759.649
		z M833.904,606.59c-0.677,1.038-69.585,103.498-234.361,67.446c-1.458-0.111-3.091-0.593-5.334-1.251
		c-62.221-18.255-127.922,0.927-172.078,20.23c-0.927,0.408-1.896,0.598-2.846,0.598c-2.744,0-5.357-1.594-6.528-4.268
		c-1.573-3.601,0.07-7.8,3.673-9.371c44.502-19.453,110.065-38.61,173.959-22.855c-0.76-28.735,37.923-62.596,43.008-66.916
		c2.996-2.544,7.487-2.178,10.031,0.816c2.547,2.999,2.181,7.489-0.811,10.034c-11.994,10.205-43.015,41.86-37.302,59.607
		c152.745,32.175,214.112-57.964,216.665-61.85c2.157-3.281,6.563-4.199,9.851-2.053
		C835.118,598.906,836.048,603.299,833.904,606.59z M1060.797,715.32c0.308,3.916-2.621,7.346-6.539,7.652
		c-0.19,0.014-0.38,0.023-0.565,0.023c-3.673,0-6.783-2.818-7.089-6.539c-0.166-1.949-4.416-44.767-51.472-61.521
		c4.091,19.984,4.477,42.943-3.197,67.421c-0.952,3.045-3.761,4.991-6.79,4.991c-0.707,0-1.423-0.102-2.132-0.324
		c-3.752-1.177-5.84-5.172-4.662-8.922c21.4-68.276-28.498-125.642-29.005-126.212c-2.607-2.943-2.336-7.443,0.605-10.048
		c2.945-2.614,7.443-2.331,10.05,0.603c1.339,1.513,20.242,23.276,30.876,56.296C1055.336,655.914,1060.749,714.712,1060.797,715.32
		z M948.553,401.16c-0.695-8.032-2.512-15.591-5.399-22.473c-9.7-23.094-22.424-36.061-37.818-38.527
		c-3.779-0.607-7.777-0.806-11.86-0.584c-28.261,1.548-47.237,12.805-63.977,22.737c-16.643,9.876-32.358,19.219-53.033,16.763
		c-13.32-1.566-23.97-7.369-31.658-17.245c-17.182-22.07-12.849-56.754-12.657-58.219c0.517-3.898,4.104-6.651,7.988-6.132
		c3.895,0.514,6.637,4.083,6.129,7.976c-0.042,0.334-3.719,30.342,9.802,47.666c5.334,6.831,12.55,10.696,22.06,11.818
		c15.876,1.845,28.34-5.524,44.104-14.872c18.149-10.766,38.717-22.973,70.468-24.711c5.107-0.269,10.113-0.028,14.891,0.742
		c20.573,3.3,36.956,19.141,48.688,47.077c3.462,8.245,5.633,17.245,6.458,26.75c1.455,16.786,4.667,26.435,17.454,29.341
		c3.835,0.871,6.236,4.686,5.364,8.523c-0.751,3.3-3.687,5.538-6.936,5.538c-0.524,0-1.054-0.056-1.585-0.176
		C951.695,437.392,949.575,412.917,948.553,401.16z M683.727,246.765c-0.28,0.653-26.76,60.36-98.092,60.36
		c-3.382,0-6.897-0.181-10.483-0.461c-1.502,23.365,2.719,48.639,17.481,73.696c1.995,3.388,0.867,7.754-2.521,9.746
		c-1.133,0.672-2.378,0.987-3.606,0.987c-2.438,0-4.813-1.251-6.141-3.504c-17.753-30.135-21.796-60.403-18.927-87.842
		c-0.077-0.597-0.106-1.206-0.023-1.832c0.08-0.605,0.255-1.168,0.473-1.709c7.51-59.057,46.246-104.156,46.827-104.82
		c2.588-2.948,7.084-3.244,10.041-0.658c2.957,2.586,3.253,7.082,0.667,10.043c-0.519,0.593-34.252,39.924-42.681,91.766
		c68.786,5.123,93.647-50.794,93.897-51.381c1.55-3.61,5.742-5.274,9.348-3.74C683.6,238.965,685.275,243.15,683.727,246.765z
		 M582.81,455.231c-0.111,3.861-3.277,6.915-7.112,6.915c-0.07,0-0.139,0-0.211-0.005c-67.679-1.952-101.015-37.683-115.593-60.826
		c-19.9-4.073-31.425-18.732-41.642-31.763c-6.187-7.888-12.029-15.34-18.812-19.127c-13.98-7.8-36.316,1.469-43.741,5.7
		c-3.423,1.942-7.763,0.755-9.709-2.656c-1.947-3.416-0.755-7.763,2.66-9.709c1.374-0.783,33.948-19.053,57.728-5.765
		c9.281,5.177,16.295,14.121,23.078,22.769c6.389,8.15,12.572,15.979,20.439,21.176c-10.328-25.125-10.521-48.895-4.392-60.871
		c4.519-8.82,11.443-16.684,21.171-24.039c31-23.441,22.417-69.689,22.327-70.153c-0.751-3.856,1.761-7.596,5.615-8.351
		c3.844-0.76,7.589,1.743,8.351,5.594c0.447,2.252,10.472,55.401-27.705,84.265c-7.978,6.034-13.568,12.305-17.085,19.173
		c-4.952,9.677-3.481,37.169,12.17,63.609c12.075,20.401,41.845,54.901,105.554,56.745
		C579.83,448.024,582.924,451.301,582.81,455.231z M262.412,319.258c-3.314,11.897-12.847,20.976-24.883,23.692
		c-32.741,7.392-53.793,20.485-62.573,38.916c-8.785,18.445-5.717,42.99,9.123,72.947c1.745,3.522,0.304,7.795-3.221,9.538
		c-1.015,0.505-2.092,0.742-3.154,0.742c-2.621,0-5.142-1.451-6.384-3.958c-16.874-34.073-19.975-62.802-9.218-85.391
		c10.752-22.575,35.074-38.281,72.294-46.679c6.915-1.562,12.395-6.78,14.3-13.625c30.813-110.714,169.396-97.181,170.801-97.01
		c3.907,0.417,6.732,3.925,6.317,7.832c-0.417,3.907-3.958,6.706-7.83,6.321C412.765,232.06,289.978,220.214,262.412,319.258z
		 M861.973,875.146c0.371,0.218,37.336,21.564,68.204,11.698c14.228-4.546,25.228-15.271,32.694-31.876
		c1.613-3.583,5.83-5.181,9.413-3.573c3.585,1.613,5.186,5.826,3.573,9.413c-9.206,20.475-23.143,33.809-41.419,39.621
		c-7.304,2.322-14.77,3.263-22.053,3.263c-29.587,0-56.245-15.456-57.63-16.276c-3.385-1.993-4.512-6.349-2.521-9.737
		C854.222,874.298,858.59,873.163,861.973,875.146z M795.076,1055.184c1.789,3.499,0.399,7.786-3.103,9.575
		c-7.438,3.796-14.877,5.696-22.255,5.696c-6.298,0-12.553-1.381-18.726-4.153c-46.466-20.865-71.784-116.28-72.839-120.331
		c-0.99-3.805,1.291-7.689,5.093-8.68c3.821-1.01,7.693,1.288,8.685,5.093c0.241,0.927,24.635,92.862,64.9,110.932
		c9.394,4.217,18.774,3.81,28.667-1.237C788.998,1050.299,793.289,1051.685,795.076,1055.184z M734.915,950.643
		c-0.144-3.925,2.922-7.225,6.85-7.374c3.803,0.014,7.228,2.924,7.378,6.85c0.614,16.244,5.707,44.542,16.761,51.318
		c2.116,1.298,5.696,2.679,12.312-0.385c3.562-1.659,7.8-0.102,9.45,3.471c1.65,3.569,0.097,7.8-3.471,9.45
		c-4.931,2.28-9.322,3.147-13.143,3.147c-5.332,0-9.556-1.682-12.597-3.55C737.348,1000.621,735.103,955.722,734.915,950.643z"/>
</g>
</svg>
